<?xml version="1.0" encoding="UTF-8"?><svg id="Layer_2" xmlns="http://www.w3.org/2000/svg" viewBox="0 0 718.44 247.85"><defs><style>.cls-1{fill:#1d4321;}</style></defs><g id="Calque_1"><g><g><g><polygon class="cls-1" points="33.22 44.98 33.22 74.73 95.42 100.36 95.42 70.6 33.22 44.98"/><polygon class="cls-1" points="0 91.27 0 120.53 95.42 159.85 95.42 130.1 0 90.78 0 91.27"/><polygon class="cls-1" points="53.36 202 95.42 219.33 95.42 189.58 53.36 172.25 53.36 202"/></g><polygon class="cls-1" points="95.44 11.14 68.39 0 68.39 29.75 95.44 40.9 95.44 11.14"/><polygon class="cls-1" points="101.83 247.85 101.82 182.25 95.42 179.62 95.43 245.22 101.72 247.81 101.83 247.85"/><polygon class="cls-1" points="137.51 53.31 95.45 70.64 95.45 40.89 137.51 23.56 137.51 53.31"/><polygon class="cls-1" points="157.65 134.23 157.65 163.98 95.45 189.61 95.45 159.86 157.65 134.23"/><polygon class="cls-1" points="190.88 61.55 190.88 90.81 95.46 130.13 95.46 100.37 190.88 61.06 190.88 61.55"/></g><g><path class="cls-1" d="m246.19,200.19V47.49h61.08c8.87,0,16.8,1.82,23.78,5.45,6.98,3.64,12.4,8.54,16.25,14.72,3.85,6.18,5.78,12.91,5.78,20.18s-1.82,13.34-5.45,18.65c-3.64,5.31-8.15,9.2-13.53,11.67,6.69,2.47,12.79,7.02,18.32,13.63,5.52,6.62,8.29,14.5,8.29,23.67,0,8-2.15,15.42-6.44,22.25-4.29,6.84-10.25,12.29-17.89,16.36-7.63,4.07-16.25,6.11-25.85,6.11h-64.35Zm61.08-90.53c6.54,0,11.81-1.93,15.81-5.78,4-3.85,6-8.83,6-14.94s-2-11.09-6-14.94c-4-3.85-9.27-5.78-15.81-5.78h-37.08v41.44h37.08Zm3.27,69.8c7.56,0,13.81-2.4,18.76-7.2,4.94-4.8,7.42-10.76,7.42-17.89s-2.47-13.09-7.42-17.89c-4.95-4.8-11.2-7.2-18.76-7.2h-40.36v50.17h40.36Z"/><path class="cls-1" d="m424.4,191.9c-12.36-6.98-22.07-16.47-29.12-28.47-7.05-12-10.58-25.19-10.58-39.59s3.52-27.59,10.58-39.59c7.05-12,16.76-21.49,29.12-28.47,12.36-6.98,26.03-10.47,41.01-10.47,13.81,0,26.07,2.91,36.76,8.72,10.69,5.82,19.16,12.65,25.41,20.5l-16.8,13.74c-5.38-6.11-11.67-11.16-18.87-15.16-7.2-4-16.03-6-26.5-6s-19.85,2.51-28.58,7.53c-8.72,5.02-15.6,11.89-20.61,20.61-5.02,8.73-7.53,18.25-7.53,28.58s2.51,19.85,7.53,28.58c5.02,8.73,11.89,15.6,20.61,20.61,8.73,5.02,18.25,7.53,28.58,7.53,9.02,0,17.27-1.67,24.76-5.02,7.49-3.34,13.05-7.12,16.69-11.34v-23.99h-32.72v-20.72h56.71v53.44c-3.64,4.66-8.69,9.24-15.16,13.74-6.47,4.51-14.04,8.25-22.68,11.23-8.65,2.98-17.85,4.47-27.59,4.47-14.98,0-28.65-3.49-41.01-10.47Z"/><path class="cls-1" d="m596.73,191.9c-12.36-6.98-22.07-16.47-29.12-28.47-7.05-12-10.58-25.19-10.58-39.59s3.52-27.59,10.58-39.59c7.05-12,16.76-21.49,29.12-28.47,12.36-6.98,26.03-10.47,41.01-10.47s28.65,3.49,41.01,10.47c12.36,6.98,22.07,16.47,29.12,28.47,7.05,12,10.58,25.19,10.58,39.59s-3.53,27.59-10.58,39.59c-7.06,12-16.76,21.49-29.12,28.47-12.36,6.98-26.03,10.47-41.01,10.47s-28.65-3.49-41.01-10.47Zm69.58-18.87c8.73-5.02,15.6-11.89,20.61-20.61,5.02-8.72,7.53-18.25,7.53-28.58s-2.51-19.85-7.53-28.58c-5.02-8.72-11.89-15.6-20.61-20.61-8.72-5.02-18.25-7.53-28.58-7.53s-19.85,2.51-28.58,7.53c-8.72,5.02-15.6,11.89-20.61,20.61-5.02,8.73-7.53,18.25-7.53,28.58s2.51,19.85,7.53,28.58c5.02,8.73,11.89,15.6,20.61,20.61,8.73,5.02,18.25,7.53,28.58,7.53s19.85-2.51,28.58-7.53Z"/></g></g></g></svg>